<mxfile host="Electron" modified="2024-03-01T12:42:22.897Z" agent="Mozilla/5.0 (Windows NT 10.0; Win64; x64) AppleWebKit/537.36 (KHTML, like Gecko) draw.io/22.1.18 Chrome/120.0.6099.199 Electron/28.1.2 Safari/537.36" etag="YqBlm5v0hYZAKYP079HU" version="22.1.18" type="device">
  <diagram name="Page-1" id="-5k9ssh1PsKzDlXD9x-G">
    <mxGraphModel dx="1012" dy="911" grid="1" gridSize="10" guides="1" tooltips="1" connect="1" arrows="1" fold="1" page="1" pageScale="1" pageWidth="850" pageHeight="1100" math="0" shadow="0">
      <root>
        <mxCell id="0" />
        <mxCell id="1" parent="0" />
        <mxCell id="OWrJz08ZFz05rzJFqo_H-8" style="rounded=0;orthogonalLoop=1;jettySize=auto;html=1;exitX=1;exitY=1;exitDx=0;exitDy=0;endArrow=none;endFill=0;" parent="1" source="OWrJz08ZFz05rzJFqo_H-1" target="OWrJz08ZFz05rzJFqo_H-5" edge="1">
          <mxGeometry relative="1" as="geometry" />
        </mxCell>
        <mxCell id="OWrJz08ZFz05rzJFqo_H-9" style="edgeStyle=orthogonalEdgeStyle;rounded=0;orthogonalLoop=1;jettySize=auto;html=1;exitX=1;exitY=0.5;exitDx=0;exitDy=0;entryX=0;entryY=0.5;entryDx=0;entryDy=0;endArrow=none;endFill=0;" parent="1" source="OWrJz08ZFz05rzJFqo_H-1" target="OWrJz08ZFz05rzJFqo_H-2" edge="1">
          <mxGeometry relative="1" as="geometry" />
        </mxCell>
        <mxCell id="OWrJz08ZFz05rzJFqo_H-12" style="edgeStyle=orthogonalEdgeStyle;rounded=0;orthogonalLoop=1;jettySize=auto;html=1;exitX=0.5;exitY=1;exitDx=0;exitDy=0;entryX=0.5;entryY=0;entryDx=0;entryDy=0;endArrow=none;endFill=0;" parent="1" source="OWrJz08ZFz05rzJFqo_H-1" target="OWrJz08ZFz05rzJFqo_H-4" edge="1">
          <mxGeometry relative="1" as="geometry" />
        </mxCell>
        <mxCell id="OWrJz08ZFz05rzJFqo_H-1" value="&lt;font style=&quot;font-size: 24px;&quot;&gt;&lt;b&gt;A&lt;/b&gt;&lt;/font&gt;" style="ellipse;whiteSpace=wrap;html=1;aspect=fixed;" parent="1" vertex="1">
          <mxGeometry x="40" y="40" width="50" height="50" as="geometry" />
        </mxCell>
        <mxCell id="OWrJz08ZFz05rzJFqo_H-10" style="rounded=0;orthogonalLoop=1;jettySize=auto;html=1;exitX=1;exitY=0.5;exitDx=0;exitDy=0;entryX=0.5;entryY=0;entryDx=0;entryDy=0;endArrow=none;endFill=0;" parent="1" source="OWrJz08ZFz05rzJFqo_H-2" target="OWrJz08ZFz05rzJFqo_H-6" edge="1">
          <mxGeometry relative="1" as="geometry" />
        </mxCell>
        <mxCell id="OWrJz08ZFz05rzJFqo_H-2" value="&lt;font style=&quot;font-size: 24px;&quot;&gt;&lt;b&gt;B&lt;/b&gt;&lt;/font&gt;" style="ellipse;whiteSpace=wrap;html=1;aspect=fixed;" parent="1" vertex="1">
          <mxGeometry x="210" y="40" width="50" height="50" as="geometry" />
        </mxCell>
        <mxCell id="OWrJz08ZFz05rzJFqo_H-13" style="edgeStyle=orthogonalEdgeStyle;rounded=0;orthogonalLoop=1;jettySize=auto;html=1;exitX=1;exitY=0.5;exitDx=0;exitDy=0;entryX=0;entryY=0.5;entryDx=0;entryDy=0;endArrow=none;endFill=0;" parent="1" source="OWrJz08ZFz05rzJFqo_H-4" target="OWrJz08ZFz05rzJFqo_H-5" edge="1">
          <mxGeometry relative="1" as="geometry" />
        </mxCell>
        <mxCell id="OWrJz08ZFz05rzJFqo_H-4" value="&lt;font style=&quot;font-size: 24px;&quot;&gt;&lt;b&gt;C&lt;/b&gt;&lt;/font&gt;" style="ellipse;whiteSpace=wrap;html=1;aspect=fixed;" parent="1" vertex="1">
          <mxGeometry x="40" y="240" width="50" height="50" as="geometry" />
        </mxCell>
        <mxCell id="OWrJz08ZFz05rzJFqo_H-11" style="rounded=0;orthogonalLoop=1;jettySize=auto;html=1;exitX=1;exitY=0.5;exitDx=0;exitDy=0;entryX=0.5;entryY=1;entryDx=0;entryDy=0;endArrow=none;endFill=0;" parent="1" source="OWrJz08ZFz05rzJFqo_H-5" target="OWrJz08ZFz05rzJFqo_H-6" edge="1">
          <mxGeometry relative="1" as="geometry" />
        </mxCell>
        <mxCell id="OWrJz08ZFz05rzJFqo_H-5" value="&lt;font style=&quot;font-size: 24px;&quot;&gt;&lt;b&gt;D&lt;/b&gt;&lt;/font&gt;" style="ellipse;whiteSpace=wrap;html=1;aspect=fixed;" parent="1" vertex="1">
          <mxGeometry x="210" y="240" width="50" height="50" as="geometry" />
        </mxCell>
        <mxCell id="OWrJz08ZFz05rzJFqo_H-6" value="&lt;font style=&quot;font-size: 24px;&quot;&gt;&lt;b&gt;E&lt;/b&gt;&lt;/font&gt;" style="ellipse;whiteSpace=wrap;html=1;aspect=fixed;" parent="1" vertex="1">
          <mxGeometry x="400" y="150" width="50" height="50" as="geometry" />
        </mxCell>
        <mxCell id="OWrJz08ZFz05rzJFqo_H-46" value="" style="childLayout=tableLayout;recursiveResize=0;shadow=0;fillColor=none;" parent="1" vertex="1">
          <mxGeometry x="335" y="440" width="60" height="233" as="geometry" />
        </mxCell>
        <mxCell id="OWrJz08ZFz05rzJFqo_H-75" style="shape=tableRow;horizontal=0;startSize=0;swimlaneHead=0;swimlaneBody=0;top=0;left=0;bottom=0;right=0;dropTarget=0;collapsible=0;recursiveResize=0;expand=0;fontStyle=0;fillColor=none;strokeColor=inherit;" parent="OWrJz08ZFz05rzJFqo_H-46" vertex="1">
          <mxGeometry width="60" height="47" as="geometry" />
        </mxCell>
        <mxCell id="OWrJz08ZFz05rzJFqo_H-76" value="A" style="connectable=0;recursiveResize=0;strokeColor=inherit;fillColor=none;align=center;whiteSpace=wrap;html=1;" parent="OWrJz08ZFz05rzJFqo_H-75" vertex="1">
          <mxGeometry width="60" height="47" as="geometry">
            <mxRectangle width="60" height="47" as="alternateBounds" />
          </mxGeometry>
        </mxCell>
        <mxCell id="OWrJz08ZFz05rzJFqo_H-68" style="shape=tableRow;horizontal=0;startSize=0;swimlaneHead=0;swimlaneBody=0;top=0;left=0;bottom=0;right=0;dropTarget=0;collapsible=0;recursiveResize=0;expand=0;fontStyle=0;fillColor=none;strokeColor=inherit;" parent="OWrJz08ZFz05rzJFqo_H-46" vertex="1">
          <mxGeometry y="47" width="60" height="47" as="geometry" />
        </mxCell>
        <mxCell id="OWrJz08ZFz05rzJFqo_H-69" value="B" style="connectable=0;recursiveResize=0;strokeColor=inherit;fillColor=none;align=center;whiteSpace=wrap;html=1;" parent="OWrJz08ZFz05rzJFqo_H-68" vertex="1">
          <mxGeometry width="60" height="47" as="geometry">
            <mxRectangle width="60" height="47" as="alternateBounds" />
          </mxGeometry>
        </mxCell>
        <mxCell id="OWrJz08ZFz05rzJFqo_H-47" value="" style="shape=tableRow;horizontal=0;startSize=0;swimlaneHead=0;swimlaneBody=0;top=0;left=0;bottom=0;right=0;dropTarget=0;collapsible=0;recursiveResize=0;expand=0;fontStyle=0;fillColor=none;strokeColor=inherit;" parent="OWrJz08ZFz05rzJFqo_H-46" vertex="1">
          <mxGeometry y="94" width="60" height="47" as="geometry" />
        </mxCell>
        <mxCell id="OWrJz08ZFz05rzJFqo_H-65" value="C" style="connectable=0;recursiveResize=0;strokeColor=inherit;fillColor=none;align=center;whiteSpace=wrap;html=1;" parent="OWrJz08ZFz05rzJFqo_H-47" vertex="1">
          <mxGeometry width="60" height="47" as="geometry">
            <mxRectangle width="60" height="47" as="alternateBounds" />
          </mxGeometry>
        </mxCell>
        <mxCell id="OWrJz08ZFz05rzJFqo_H-51" style="shape=tableRow;horizontal=0;startSize=0;swimlaneHead=0;swimlaneBody=0;top=0;left=0;bottom=0;right=0;dropTarget=0;collapsible=0;recursiveResize=0;expand=0;fontStyle=0;fillColor=none;strokeColor=inherit;" parent="OWrJz08ZFz05rzJFqo_H-46" vertex="1">
          <mxGeometry y="141" width="60" height="46" as="geometry" />
        </mxCell>
        <mxCell id="OWrJz08ZFz05rzJFqo_H-66" value="D" style="connectable=0;recursiveResize=0;strokeColor=inherit;fillColor=none;align=center;whiteSpace=wrap;html=1;" parent="OWrJz08ZFz05rzJFqo_H-51" vertex="1">
          <mxGeometry width="60" height="46" as="geometry">
            <mxRectangle width="60" height="46" as="alternateBounds" />
          </mxGeometry>
        </mxCell>
        <mxCell id="OWrJz08ZFz05rzJFqo_H-94" style="shape=tableRow;horizontal=0;startSize=0;swimlaneHead=0;swimlaneBody=0;top=0;left=0;bottom=0;right=0;dropTarget=0;collapsible=0;recursiveResize=0;expand=0;fontStyle=0;fillColor=none;strokeColor=inherit;" parent="OWrJz08ZFz05rzJFqo_H-46" vertex="1">
          <mxGeometry y="187" width="60" height="46" as="geometry" />
        </mxCell>
        <mxCell id="OWrJz08ZFz05rzJFqo_H-95" value="E" style="connectable=0;recursiveResize=0;strokeColor=inherit;fillColor=none;align=center;whiteSpace=wrap;html=1;" parent="OWrJz08ZFz05rzJFqo_H-94" vertex="1">
          <mxGeometry width="60" height="46" as="geometry">
            <mxRectangle width="60" height="46" as="alternateBounds" />
          </mxGeometry>
        </mxCell>
        <mxCell id="wGs0QGNT79sH7qt1FUte-43" style="edgeStyle=orthogonalEdgeStyle;rounded=0;orthogonalLoop=1;jettySize=auto;html=1;exitX=1;exitY=0.5;exitDx=0;exitDy=0;entryX=0;entryY=0.5;entryDx=0;entryDy=0;" edge="1" parent="1" source="wGs0QGNT79sH7qt1FUte-1" target="wGs0QGNT79sH7qt1FUte-4">
          <mxGeometry relative="1" as="geometry" />
        </mxCell>
        <mxCell id="wGs0QGNT79sH7qt1FUte-1" value="C" style="rounded=0;whiteSpace=wrap;html=1;" vertex="1" parent="1">
          <mxGeometry x="580" y="440" width="80" height="40" as="geometry" />
        </mxCell>
        <mxCell id="wGs0QGNT79sH7qt1FUte-2" value="" style="endArrow=none;html=1;rounded=0;entryX=0.75;entryY=0;entryDx=0;entryDy=0;exitX=0.75;exitY=1;exitDx=0;exitDy=0;" edge="1" parent="1" source="wGs0QGNT79sH7qt1FUte-1" target="wGs0QGNT79sH7qt1FUte-1">
          <mxGeometry width="50" height="50" relative="1" as="geometry">
            <mxPoint x="520" y="480" as="sourcePoint" />
            <mxPoint x="570" y="430" as="targetPoint" />
          </mxGeometry>
        </mxCell>
        <mxCell id="wGs0QGNT79sH7qt1FUte-4" value="D" style="rounded=0;whiteSpace=wrap;html=1;" vertex="1" parent="1">
          <mxGeometry x="690" y="440" width="80" height="40" as="geometry" />
        </mxCell>
        <mxCell id="wGs0QGNT79sH7qt1FUte-5" value="" style="endArrow=none;html=1;rounded=0;entryX=0.75;entryY=0;entryDx=0;entryDy=0;exitX=0.75;exitY=1;exitDx=0;exitDy=0;" edge="1" parent="1" source="wGs0QGNT79sH7qt1FUte-4" target="wGs0QGNT79sH7qt1FUte-4">
          <mxGeometry width="50" height="50" relative="1" as="geometry">
            <mxPoint x="560" y="350" as="sourcePoint" />
            <mxPoint x="610" y="300" as="targetPoint" />
          </mxGeometry>
        </mxCell>
        <mxCell id="wGs0QGNT79sH7qt1FUte-38" style="edgeStyle=orthogonalEdgeStyle;rounded=0;orthogonalLoop=1;jettySize=auto;html=1;exitX=1;exitY=0.5;exitDx=0;exitDy=0;entryX=0;entryY=0.5;entryDx=0;entryDy=0;" edge="1" parent="1" source="wGs0QGNT79sH7qt1FUte-6" target="wGs0QGNT79sH7qt1FUte-1">
          <mxGeometry relative="1" as="geometry" />
        </mxCell>
        <mxCell id="wGs0QGNT79sH7qt1FUte-6" value="B" style="rounded=0;whiteSpace=wrap;html=1;" vertex="1" parent="1">
          <mxGeometry x="470" y="440" width="80" height="40" as="geometry" />
        </mxCell>
        <mxCell id="wGs0QGNT79sH7qt1FUte-7" value="" style="endArrow=none;html=1;rounded=0;entryX=0.75;entryY=0;entryDx=0;entryDy=0;exitX=0.75;exitY=1;exitDx=0;exitDy=0;" edge="1" parent="1" source="wGs0QGNT79sH7qt1FUte-6" target="wGs0QGNT79sH7qt1FUte-6">
          <mxGeometry width="50" height="50" relative="1" as="geometry">
            <mxPoint x="540" y="500" as="sourcePoint" />
            <mxPoint x="590" y="450" as="targetPoint" />
          </mxGeometry>
        </mxCell>
        <mxCell id="wGs0QGNT79sH7qt1FUte-39" style="edgeStyle=orthogonalEdgeStyle;rounded=0;orthogonalLoop=1;jettySize=auto;html=1;exitX=1;exitY=0.5;exitDx=0;exitDy=0;entryX=0;entryY=0.5;entryDx=0;entryDy=0;" edge="1" parent="1" source="wGs0QGNT79sH7qt1FUte-8" target="wGs0QGNT79sH7qt1FUte-10">
          <mxGeometry relative="1" as="geometry" />
        </mxCell>
        <mxCell id="wGs0QGNT79sH7qt1FUte-8" value="A" style="rounded=0;whiteSpace=wrap;html=1;" vertex="1" parent="1">
          <mxGeometry x="470" y="490" width="80" height="40" as="geometry" />
        </mxCell>
        <mxCell id="wGs0QGNT79sH7qt1FUte-9" value="" style="endArrow=none;html=1;rounded=0;entryX=0.75;entryY=0;entryDx=0;entryDy=0;exitX=0.75;exitY=1;exitDx=0;exitDy=0;" edge="1" parent="1" source="wGs0QGNT79sH7qt1FUte-8" target="wGs0QGNT79sH7qt1FUte-8">
          <mxGeometry width="50" height="50" relative="1" as="geometry">
            <mxPoint x="430" y="350" as="sourcePoint" />
            <mxPoint x="480" y="300" as="targetPoint" />
          </mxGeometry>
        </mxCell>
        <mxCell id="wGs0QGNT79sH7qt1FUte-10" value="E" style="rounded=0;whiteSpace=wrap;html=1;" vertex="1" parent="1">
          <mxGeometry x="580" y="490" width="80" height="40" as="geometry" />
        </mxCell>
        <mxCell id="wGs0QGNT79sH7qt1FUte-11" value="" style="endArrow=none;html=1;rounded=0;entryX=0.75;entryY=0;entryDx=0;entryDy=0;exitX=0.75;exitY=1;exitDx=0;exitDy=0;" edge="1" parent="1" source="wGs0QGNT79sH7qt1FUte-10" target="wGs0QGNT79sH7qt1FUte-10">
          <mxGeometry width="50" height="50" relative="1" as="geometry">
            <mxPoint x="290" y="450" as="sourcePoint" />
            <mxPoint x="340" y="400" as="targetPoint" />
          </mxGeometry>
        </mxCell>
        <mxCell id="wGs0QGNT79sH7qt1FUte-40" style="edgeStyle=orthogonalEdgeStyle;rounded=0;orthogonalLoop=1;jettySize=auto;html=1;exitX=1;exitY=0.5;exitDx=0;exitDy=0;entryX=0;entryY=0.5;entryDx=0;entryDy=0;" edge="1" parent="1" source="wGs0QGNT79sH7qt1FUte-12" target="wGs0QGNT79sH7qt1FUte-14">
          <mxGeometry relative="1" as="geometry" />
        </mxCell>
        <mxCell id="wGs0QGNT79sH7qt1FUte-12" value="A" style="rounded=0;whiteSpace=wrap;html=1;" vertex="1" parent="1">
          <mxGeometry x="470" y="536.5" width="80" height="40" as="geometry" />
        </mxCell>
        <mxCell id="wGs0QGNT79sH7qt1FUte-13" value="" style="endArrow=none;html=1;rounded=0;entryX=0.75;entryY=0;entryDx=0;entryDy=0;exitX=0.75;exitY=1;exitDx=0;exitDy=0;" edge="1" parent="1" source="wGs0QGNT79sH7qt1FUte-12" target="wGs0QGNT79sH7qt1FUte-12">
          <mxGeometry width="50" height="50" relative="1" as="geometry">
            <mxPoint x="290" y="510" as="sourcePoint" />
            <mxPoint x="340" y="460" as="targetPoint" />
          </mxGeometry>
        </mxCell>
        <mxCell id="wGs0QGNT79sH7qt1FUte-14" value="D" style="rounded=0;whiteSpace=wrap;html=1;" vertex="1" parent="1">
          <mxGeometry x="580" y="536.5" width="80" height="40" as="geometry" />
        </mxCell>
        <mxCell id="wGs0QGNT79sH7qt1FUte-15" value="" style="endArrow=none;html=1;rounded=0;entryX=0.75;entryY=0;entryDx=0;entryDy=0;exitX=0.75;exitY=1;exitDx=0;exitDy=0;" edge="1" parent="1" source="wGs0QGNT79sH7qt1FUte-14" target="wGs0QGNT79sH7qt1FUte-14">
          <mxGeometry width="50" height="50" relative="1" as="geometry">
            <mxPoint x="290" y="570" as="sourcePoint" />
            <mxPoint x="340" y="520" as="targetPoint" />
          </mxGeometry>
        </mxCell>
        <mxCell id="wGs0QGNT79sH7qt1FUte-41" style="edgeStyle=orthogonalEdgeStyle;rounded=0;orthogonalLoop=1;jettySize=auto;html=1;exitX=1;exitY=0.5;exitDx=0;exitDy=0;entryX=0;entryY=0.5;entryDx=0;entryDy=0;" edge="1" parent="1" source="wGs0QGNT79sH7qt1FUte-16" target="wGs0QGNT79sH7qt1FUte-18">
          <mxGeometry relative="1" as="geometry" />
        </mxCell>
        <mxCell id="wGs0QGNT79sH7qt1FUte-16" value="A" style="rounded=0;whiteSpace=wrap;html=1;" vertex="1" parent="1">
          <mxGeometry x="470" y="590" width="80" height="40" as="geometry" />
        </mxCell>
        <mxCell id="wGs0QGNT79sH7qt1FUte-17" value="" style="endArrow=none;html=1;rounded=0;entryX=0.75;entryY=0;entryDx=0;entryDy=0;exitX=0.75;exitY=1;exitDx=0;exitDy=0;" edge="1" parent="1" source="wGs0QGNT79sH7qt1FUte-16" target="wGs0QGNT79sH7qt1FUte-16">
          <mxGeometry width="50" height="50" relative="1" as="geometry">
            <mxPoint x="290" y="630" as="sourcePoint" />
            <mxPoint x="340" y="580" as="targetPoint" />
          </mxGeometry>
        </mxCell>
        <mxCell id="wGs0QGNT79sH7qt1FUte-44" style="edgeStyle=orthogonalEdgeStyle;rounded=0;orthogonalLoop=1;jettySize=auto;html=1;exitX=1;exitY=0.5;exitDx=0;exitDy=0;entryX=0;entryY=0.5;entryDx=0;entryDy=0;" edge="1" parent="1" source="wGs0QGNT79sH7qt1FUte-18" target="wGs0QGNT79sH7qt1FUte-20">
          <mxGeometry relative="1" as="geometry" />
        </mxCell>
        <mxCell id="wGs0QGNT79sH7qt1FUte-18" value="C" style="rounded=0;whiteSpace=wrap;html=1;" vertex="1" parent="1">
          <mxGeometry x="580" y="590" width="80" height="40" as="geometry" />
        </mxCell>
        <mxCell id="wGs0QGNT79sH7qt1FUte-19" value="" style="endArrow=none;html=1;rounded=0;entryX=0.75;entryY=0;entryDx=0;entryDy=0;exitX=0.75;exitY=1;exitDx=0;exitDy=0;" edge="1" parent="1" source="wGs0QGNT79sH7qt1FUte-18" target="wGs0QGNT79sH7qt1FUte-18">
          <mxGeometry width="50" height="50" relative="1" as="geometry">
            <mxPoint x="290" y="690" as="sourcePoint" />
            <mxPoint x="340" y="640" as="targetPoint" />
          </mxGeometry>
        </mxCell>
        <mxCell id="wGs0QGNT79sH7qt1FUte-20" value="E" style="rounded=0;whiteSpace=wrap;html=1;" vertex="1" parent="1">
          <mxGeometry x="690" y="590" width="80" height="40" as="geometry" />
        </mxCell>
        <mxCell id="wGs0QGNT79sH7qt1FUte-21" value="" style="endArrow=none;html=1;rounded=0;entryX=0.75;entryY=0;entryDx=0;entryDy=0;exitX=0.75;exitY=1;exitDx=0;exitDy=0;" edge="1" parent="1" source="wGs0QGNT79sH7qt1FUte-20" target="wGs0QGNT79sH7qt1FUte-20">
          <mxGeometry width="50" height="50" relative="1" as="geometry">
            <mxPoint x="180" y="450" as="sourcePoint" />
            <mxPoint x="230" y="400" as="targetPoint" />
          </mxGeometry>
        </mxCell>
        <mxCell id="wGs0QGNT79sH7qt1FUte-26" value="D" style="rounded=0;whiteSpace=wrap;html=1;" vertex="1" parent="1">
          <mxGeometry x="580" y="640" width="80" height="40" as="geometry" />
        </mxCell>
        <mxCell id="wGs0QGNT79sH7qt1FUte-27" value="" style="endArrow=none;html=1;rounded=0;entryX=0.75;entryY=0;entryDx=0;entryDy=0;exitX=0.75;exitY=1;exitDx=0;exitDy=0;" edge="1" parent="1" source="wGs0QGNT79sH7qt1FUte-26" target="wGs0QGNT79sH7qt1FUte-26">
          <mxGeometry width="50" height="50" relative="1" as="geometry">
            <mxPoint x="180" y="640" as="sourcePoint" />
            <mxPoint x="230" y="590" as="targetPoint" />
          </mxGeometry>
        </mxCell>
        <mxCell id="wGs0QGNT79sH7qt1FUte-42" style="edgeStyle=orthogonalEdgeStyle;rounded=0;orthogonalLoop=1;jettySize=auto;html=1;exitX=1;exitY=0.5;exitDx=0;exitDy=0;entryX=0;entryY=0.25;entryDx=0;entryDy=0;" edge="1" parent="1" source="wGs0QGNT79sH7qt1FUte-28" target="wGs0QGNT79sH7qt1FUte-26">
          <mxGeometry relative="1" as="geometry" />
        </mxCell>
        <mxCell id="wGs0QGNT79sH7qt1FUte-28" value="B" style="rounded=0;whiteSpace=wrap;html=1;" vertex="1" parent="1">
          <mxGeometry x="470" y="640" width="80" height="40" as="geometry" />
        </mxCell>
        <mxCell id="wGs0QGNT79sH7qt1FUte-29" value="" style="endArrow=none;html=1;rounded=0;entryX=0.75;entryY=0;entryDx=0;entryDy=0;exitX=0.75;exitY=1;exitDx=0;exitDy=0;" edge="1" parent="1" source="wGs0QGNT79sH7qt1FUte-28" target="wGs0QGNT79sH7qt1FUte-28">
          <mxGeometry width="50" height="50" relative="1" as="geometry">
            <mxPoint x="170" y="713" as="sourcePoint" />
            <mxPoint x="220" y="663" as="targetPoint" />
          </mxGeometry>
        </mxCell>
        <mxCell id="wGs0QGNT79sH7qt1FUte-32" value="List/Array" style="text;html=1;align=center;verticalAlign=middle;resizable=0;points=[];autosize=1;strokeColor=none;fillColor=none;" vertex="1" parent="1">
          <mxGeometry x="335" y="400" width="70" height="30" as="geometry" />
        </mxCell>
        <mxCell id="wGs0QGNT79sH7qt1FUte-33" style="edgeStyle=orthogonalEdgeStyle;rounded=0;orthogonalLoop=1;jettySize=auto;html=1;exitX=1;exitY=0.5;exitDx=0;exitDy=0;entryX=0;entryY=0.5;entryDx=0;entryDy=0;" edge="1" parent="1" source="OWrJz08ZFz05rzJFqo_H-75" target="wGs0QGNT79sH7qt1FUte-6">
          <mxGeometry relative="1" as="geometry" />
        </mxCell>
        <mxCell id="wGs0QGNT79sH7qt1FUte-34" style="edgeStyle=orthogonalEdgeStyle;rounded=0;orthogonalLoop=1;jettySize=auto;html=1;exitX=1;exitY=0.5;exitDx=0;exitDy=0;entryX=0;entryY=0.5;entryDx=0;entryDy=0;" edge="1" parent="1" source="OWrJz08ZFz05rzJFqo_H-68" target="wGs0QGNT79sH7qt1FUte-8">
          <mxGeometry relative="1" as="geometry" />
        </mxCell>
        <mxCell id="wGs0QGNT79sH7qt1FUte-35" style="edgeStyle=orthogonalEdgeStyle;rounded=0;orthogonalLoop=1;jettySize=auto;html=1;exitX=1;exitY=0.5;exitDx=0;exitDy=0;entryX=0;entryY=0.5;entryDx=0;entryDy=0;" edge="1" parent="1" source="OWrJz08ZFz05rzJFqo_H-47" target="wGs0QGNT79sH7qt1FUte-12">
          <mxGeometry relative="1" as="geometry" />
        </mxCell>
        <mxCell id="wGs0QGNT79sH7qt1FUte-36" style="edgeStyle=orthogonalEdgeStyle;rounded=0;orthogonalLoop=1;jettySize=auto;html=1;exitX=1;exitY=0.5;exitDx=0;exitDy=0;entryX=0;entryY=0.25;entryDx=0;entryDy=0;" edge="1" parent="1" source="OWrJz08ZFz05rzJFqo_H-51" target="wGs0QGNT79sH7qt1FUte-16">
          <mxGeometry relative="1" as="geometry" />
        </mxCell>
        <mxCell id="wGs0QGNT79sH7qt1FUte-37" style="edgeStyle=orthogonalEdgeStyle;rounded=0;orthogonalLoop=1;jettySize=auto;html=1;exitX=1;exitY=0.5;exitDx=0;exitDy=0;entryX=0;entryY=0.25;entryDx=0;entryDy=0;" edge="1" parent="1" source="OWrJz08ZFz05rzJFqo_H-94" target="wGs0QGNT79sH7qt1FUte-28">
          <mxGeometry relative="1" as="geometry" />
        </mxCell>
        <mxCell id="wGs0QGNT79sH7qt1FUte-45" value="" style="shape=curlyBracket;whiteSpace=wrap;html=1;rounded=1;labelPosition=left;verticalLabelPosition=middle;align=right;verticalAlign=middle;rotation=89;" vertex="1" parent="1">
          <mxGeometry x="611.84" y="253.69" width="20" height="276.31" as="geometry" />
        </mxCell>
        <mxCell id="wGs0QGNT79sH7qt1FUte-46" value="Linked List" style="text;html=1;strokeColor=none;fillColor=none;align=center;verticalAlign=middle;whiteSpace=wrap;rounded=0;" vertex="1" parent="1">
          <mxGeometry x="592" y="350" width="60" height="30" as="geometry" />
        </mxCell>
      </root>
    </mxGraphModel>
  </diagram>
</mxfile>
